<svg version="1.2" xmlns="http://www.w3.org/2000/svg" viewBox="0 0 1411 533" width="1411" height="533"><defs><linearGradient id="P" gradientUnits="userSpaceOnUse"/><radialGradient id="g1" cx="89.6" cy="299.1" r="75.2" href="#P"><stop stop-color="#fff"/><stop offset=".08" stop-color="#fcecdb"/><stop offset=".2" stop-color="#f8d3a9"/><stop offset=".33" stop-color="#f5bd7f"/><stop offset=".46" stop-color="#f2ab5d"/><stop offset=".59" stop-color="#f09e42"/><stop offset=".72" stop-color="#ee942f"/><stop offset=".86" stop-color="#ed8e24"/><stop offset="1" stop-color="#ed8c20"/></radialGradient><radialGradient id="g2" cx="222.9" cy="298" r="84.5" href="#P"><stop stop-color="#fff"/><stop offset=".08" stop-color="#fcecdb"/><stop offset=".2" stop-color="#f8d3a9"/><stop offset=".33" stop-color="#f5bd7f"/><stop offset=".46" stop-color="#f2ab5d"/><stop offset=".59" stop-color="#f09e42"/><stop offset=".72" stop-color="#ee942f"/><stop offset=".86" stop-color="#ed8e24"/><stop offset="1" stop-color="#ed8c20"/></radialGradient><radialGradient id="g3" cx="340" cy="299.1" r="71.8" href="#P"><stop stop-color="#fff"/><stop offset=".08" stop-color="#fcecdb"/><stop offset=".2" stop-color="#f8d3a9"/><stop offset=".33" stop-color="#f5bd7f"/><stop offset=".46" stop-color="#f2ab5d"/><stop offset=".59" stop-color="#f09e42"/><stop offset=".72" stop-color="#ee942f"/><stop offset=".86" stop-color="#ed8e24"/><stop offset="1" stop-color="#ed8c20"/></radialGradient><radialGradient id="g4" cx="455.9" cy="298" r="84.5" href="#P"><stop stop-color="#fff"/><stop offset=".08" stop-color="#fcecdb"/><stop offset=".2" stop-color="#f8d3a9"/><stop offset=".33" stop-color="#f5bd7f"/><stop offset=".46" stop-color="#f2ab5d"/><stop offset=".59" stop-color="#f09e42"/><stop offset=".72" stop-color="#ee942f"/><stop offset=".86" stop-color="#ed8e24"/><stop offset="1" stop-color="#ed8c20"/></radialGradient><radialGradient id="g5" cx="923.2" cy="298" r="75.4" href="#P"><stop stop-color="#fff"/><stop offset=".08" stop-color="#fcecdb"/><stop offset=".2" stop-color="#f8d3a9"/><stop offset=".33" stop-color="#f5bd7f"/><stop offset=".46" stop-color="#f2ab5d"/><stop offset=".59" stop-color="#f09e42"/><stop offset=".72" stop-color="#ee942f"/><stop offset=".86" stop-color="#ed8e24"/><stop offset="1" stop-color="#ed8c20"/></radialGradient><radialGradient id="g6" cx="1072.3" cy="298" r="79.4" href="#P"><stop stop-color="#fff"/><stop offset=".08" stop-color="#fcecdb"/><stop offset=".2" stop-color="#f8d3a9"/><stop offset=".33" stop-color="#f5bd7f"/><stop offset=".46" stop-color="#f2ab5d"/><stop offset=".59" stop-color="#f09e42"/><stop offset=".72" stop-color="#ee942f"/><stop offset=".86" stop-color="#ed8e24"/><stop offset="1" stop-color="#ed8c20"/></radialGradient><radialGradient id="g7" cx="1205.6" cy="298" r="71.8" href="#P"><stop stop-color="#fff"/><stop offset=".08" stop-color="#fcecdb"/><stop offset=".2" stop-color="#f8d3a9"/><stop offset=".33" stop-color="#f5bd7f"/><stop offset=".46" stop-color="#f2ab5d"/><stop offset=".59" stop-color="#f09e42"/><stop offset=".72" stop-color="#ee942f"/><stop offset=".86" stop-color="#ed8e24"/><stop offset="1" stop-color="#ed8c20"/></radialGradient><radialGradient id="g8" cx="1335.3" cy="298" r="75.5" href="#P"><stop stop-color="#fff"/><stop offset=".08" stop-color="#fcecdb"/><stop offset=".2" stop-color="#f8d3a9"/><stop offset=".33" stop-color="#f5bd7f"/><stop offset=".46" stop-color="#f2ab5d"/><stop offset=".59" stop-color="#f09e42"/><stop offset=".72" stop-color="#ee942f"/><stop offset=".86" stop-color="#ed8e24"/><stop offset="1" stop-color="#ed8c20"/></radialGradient></defs><style>.a{fill:#0e76a8}.b{fill:#f7931e}.c{fill:url(#g1)}.d{fill:url(#g2)}.e{fill:url(#g3)}.f{fill:url(#g4)}.g{fill:url(#g5)}.h{fill:url(#g6)}.i{fill:url(#g7)}.j{fill:url(#g8)}</style><path fill-rule="evenodd" class="a" d="m810.9 219.1v193.4h-242.1v-242.1h185.4v48.7zm-161.5 121.5v-18q0-17.7 18.5-17.7h46.9q9.3 0 16.6-2.9 7.2-3 12.3-8.2 5.1-5.2 7.8-12.3 2.8-7.2 2.8-15.7 0-8.3-2.6-15.4-2.6-7.1-7.6-12.2-5.1-5.1-12.5-8-7.4-3-17-3h-85.4v24h85.4q7.7 0 12 4.5 4.4 4.4 4.4 12.4 0 7.9-4.5 12.2-4.4 4.4-11.9 4.4h-46.7q-19.6 0-29.7 9.8-10.1 9.8-10.1 29.8v40.3h124v-24z"/><path class="a" d="m872.8 44h58.5v58.4h-58.5z"/><path class="a" d="m775.5 5.4h48v47.9h-48z"/><path class="a" d="m770.5 131.7h71.1v71h-71.1z"/><path fill-rule="evenodd" class="b" d="m157.9 297.5c0 11.5-1.5 22.4-4.5 32.3-3.1 10-7.3 18.9-12.8 26.2-5.5 7.6-12.2 13.6-19.8 17.9-7.9 4.4-16.5 6.7-25.8 6.7h-73.6v-163.1h73.6c9.2 0 17.8 2 25.6 6.1 7.7 4 14.4 9.6 20 16.8 5.4 7 9.7 15.5 12.8 25.2 3 9.6 4.5 20.4 4.5 31.9zm-31.9 1.2c0-6.5-0.9-12.5-2.5-18-1.6-5.4-3.9-10-6.8-13.8-2.8-3.6-6-6.5-9.8-8.5-3.6-2-7.5-3-11.9-3h-41.9v87.3h41.9c4.4 0 8.2-1 11.9-3 3.7-2.1 7-5.1 9.8-8.8 2.9-3.8 5.1-8.5 6.8-14 1.6-5.5 2.5-11.6 2.5-18.2z"/><path fill-rule="evenodd" class="c" d="m157.9 297.5c0 11.5-1.5 22.4-4.5 32.3-3.1 10-7.3 18.9-12.8 26.2-5.5 7.6-12.2 13.6-19.8 17.9-7.9 4.4-16.5 6.7-25.8 6.7h-73.6v-163.1h73.6c9.2 0 17.8 2 25.6 6.1 7.7 4 14.4 9.6 20 16.8 5.4 7 9.7 15.5 12.8 25.2 3 9.6 4.5 20.4 4.5 31.9zm-31.9 1.2c0-6.5-0.9-12.5-2.5-18-1.6-5.4-3.9-10-6.8-13.8-2.8-3.6-6-6.5-9.8-8.5-3.6-2-7.5-3-11.9-3h-41.9v87.3h41.9c4.4 0 8.2-1 11.9-3 3.7-2.1 7-5.1 9.8-8.8 2.9-3.8 5.1-8.5 6.8-14 1.6-5.5 2.5-11.6 2.5-18.2z"/><path class="b" d="m309.4 380.6h-37.3l-17.6-38.2h-60.8l14.9-32.9h30.7l-17.2-37.4-49.6 108.5h-36l71.2-153.3c1.5-3.3 3.3-6 5.5-8 2.6-2.5 6-3.9 9.7-3.9 3.7 0 7.1 1.4 9.7 3.9q3.1 3.2 5.4 8.1z"/><path class="d" d="m309.4 380.6h-37.3l-17.6-38.2h-60.8l14.9-32.9h30.7l-17.2-37.4-49.6 108.5h-36l71.2-153.3c1.5-3.3 3.3-6 5.5-8 2.6-2.5 6-3.9 9.7-3.9 3.7 0 7.1 1.4 9.7 3.9q3.1 3.2 5.4 8.1z"/><path class="b" d="m400.6 217.5v37.9h-44.6v125.2h-31.9v-125.2h-44.6v-37.9z"/><path class="e" d="m400.6 217.5v37.9h-44.6v125.2h-31.9v-125.2h-44.6v-37.9z"/><path class="b" d="m542.3 380.6h-37.3l-17.6-38.2h-60.7l14.8-32.9h30.8l-17.2-37.4-49.7 108.5h-36l71.3-153.3c1.4-3.3 3.3-6 5.4-8 2.7-2.5 6.1-3.9 9.8-3.9 3.7 0 7.1 1.4 9.7 3.9 2 2.1 3.8 4.8 5.3 8.1z"/><path class="f" d="m542.3 380.6h-37.3l-17.6-38.2h-60.7l14.8-32.9h30.8l-17.2-37.4-49.7 108.5h-36l71.3-153.3c1.4-3.3 3.3-6 5.4-8 2.7-2.5 6.1-3.9 9.8-3.9 3.7 0 7.1 1.4 9.7 3.9 2 2.1 3.8 4.8 5.3 8.1z"/><path fill-rule="evenodd" class="g" d="m992 327.9c0 7.5-1 14.5-2.9 20.6-2 6.3-4.9 11.8-8.6 16.4-3.9 4.7-8.6 8.4-14 10.9-5.4 2.5-11.5 3.7-18 3.7h-94v-163h91.6c6.3 0 12.2 0.9 17.5 2.8 5.4 1.9 10.1 4.9 14.1 8.7 3.9 3.8 7 8.7 9.1 14.4 2 5.6 3.1 12 3.1 19 0 5.3-0.5 10-1.5 14-1 4.2-2.4 7.8-4.2 10.9q-2.5 4.3-5.8 7.3c2.9 2.5 5.5 5.6 7.6 9.3 4 6.7 6 15.2 6 25zm-32.3-0.4c0-4.8-1-8.4-3.1-10.7-1.9-2.1-4.8-3.2-8.9-3.2h-57.9v-33.7h56.4c4.2 0 7.2-0.9 8.9-2.5 1.6-1.7 2.5-5.2 2.5-10.2 0-3.9-0.6-6-1.2-7.2-0.7-1.4-1.6-2.5-2.9-3.2-1.5-0.9-3.4-1.6-5.7-1.9q-4.2-0.5-9.5-0.5h-51.9v87.4h53.7c3.2 0 6.2-0.3 8.9-0.9 2.4-0.5 4.4-1.3 6-2.5 1.5-1 2.6-2.4 3.5-4q1.2-2.6 1.2-6.9z"/><path fill-rule="evenodd" class="h" d="m1149.5 296.4c0 11.5-1.5 22.4-4.5 32.4-3 10-7.3 18.8-12.8 26.2-5.6 7.5-12.3 13.5-19.9 17.9-7.9 4.4-16.6 6.7-25.9 6.7h-28.6c-9.2 0-17.7-2.3-25.5-6.8-7.6-4.3-14.3-10.3-19.9-17.8-5.4-7.4-9.8-16.2-12.8-26.2-3-10-4.5-20.9-4.5-32.4 0-11.6 1.5-22.4 4.5-32.1 3.1-9.8 7.4-18.3 12.9-25.3 5.6-7.1 12.3-12.7 20-16.6 7.7-3.9 16.2-5.9 25.3-5.9h28.5c9.4 0 18.2 2 26 6 7.8 4 14.5 9.7 20.1 16.8 5.4 7.1 9.7 15.6 12.7 25.3 2.9 9.6 4.5 20.3 4.4 31.8zm-51 42.2c3.8-2.1 7.1-5.1 9.9-8.8 2.8-3.8 5.1-8.5 6.7-13.9 1.7-5.6 2.5-11.7 2.5-18.2 0-6.5-0.8-12.6-2.5-18.1-1.6-5.3-3.9-10-6.7-13.7-2.8-3.6-6.1-6.5-9.9-8.6-3.7-2-7.7-2.9-12.1-2.9h-28.6c-4.4 0-8.2 0.9-11.9 2.9-3.7 2.1-7 4.9-9.7 8.6-2.8 3.7-5.1 8.3-6.7 13.6-1.7 5.5-2.5 11.6-2.5 18.2 0 6.5 0.8 12.6 2.5 18.2 1.6 5.4 3.9 10.1 6.7 14 2.8 3.7 6 6.6 9.8 8.7 3.6 2.1 7.5 3 11.8 3h28.6c4.4 0 8.4-0.9 12.1-3z"/><path class="i" d="m1266.1 216.5v37.9h-44.5v125.2h-32v-125.2h-44.5v-37.9z"/><path class="j" d="m1404.1 329.4c0 6.9-0.8 13.4-2.4 19.3-1.7 6.1-4.3 11.4-7.8 16-3.5 4.6-8 8.3-13.4 10.9-5.3 2.6-11.6 4-18.5 4h-93.7v-38h93.7c4.9 0 7-1.9 8.2-3.3 2.1-2.6 3.2-6.1 3.2-10.8 0-5-1-8.7-3-10.9-1.9-2-4.6-3-8.5-3h-53.9c-6.3 0-12.2-1.2-17.4-3.8-5.2-2.5-9.7-6-13.3-10.5-3.5-4.4-6.2-9.6-8.1-15.5-1.8-5.8-2.7-12.2-2.7-19.1 0-6.6 0.8-12.9 2.6-18.6 1.7-5.9 4.4-11.1 7.9-15.4 3.6-4.4 8.1-7.9 13.4-10.4 5.3-2.5 11.3-3.8 17.9-3.8h90v37.9h-90c-3.8 0-5.5 1.5-6.5 2.7q-2.6 3.4-2.6 10.2c0 4.4 0.9 7.8 2.7 9.9 1.5 1.9 3.4 2.7 6.3 2.7h53.7c13.7 0 24.3 4.3 31.6 12.9 7.1 8.2 10.6 20.5 10.6 36.6z"/><path fill-rule="evenodd" class="b" d="m157.9 297.5c0 11.5-1.5 22.4-4.5 32.3-3.1 10-7.3 18.9-12.8 26.2-5.5 7.6-12.2 13.6-19.8 17.9-7.9 4.4-16.5 6.7-25.8 6.7h-73.6v-163.1h73.6c9.2 0 17.8 2 25.6 6.1 7.7 4 14.4 9.6 20 16.8 5.4 7 9.7 15.5 12.8 25.2 3 9.6 4.5 20.4 4.5 31.9zm-31.9 1.2c0-6.5-0.9-12.5-2.5-18-1.6-5.4-3.9-10-6.8-13.8-2.8-3.6-6-6.5-9.8-8.5-3.6-2-7.5-3-11.9-3h-41.9v87.3h41.9c4.4 0 8.2-1 11.9-3 3.7-2.1 7-5.1 9.8-8.8 2.9-3.8 5.1-8.5 6.8-14 1.6-5.5 2.5-11.6 2.5-18.2z"/><path fill-rule="evenodd" class="b" d="m157.9 297.5c0 11.5-1.5 22.4-4.5 32.3-3.1 10-7.3 18.9-12.8 26.2-5.5 7.6-12.2 13.6-19.8 17.9-7.9 4.4-16.5 6.7-25.8 6.7h-73.6v-163.1h73.6c9.2 0 17.8 2 25.6 6.1 7.7 4 14.4 9.6 20 16.8 5.4 7 9.7 15.5 12.8 25.2 3 9.6 4.5 20.4 4.5 31.9zm-31.9 1.2c0-6.5-0.9-12.5-2.5-18-1.6-5.4-3.9-10-6.8-13.8-2.8-3.6-6-6.5-9.8-8.5-3.6-2-7.5-3-11.9-3h-41.9v87.3h41.9c4.4 0 8.2-1 11.9-3 3.7-2.1 7-5.1 9.8-8.8 2.9-3.8 5.1-8.5 6.8-14 1.6-5.5 2.5-11.6 2.5-18.2z"/><path fill-rule="evenodd" class="b" d="m157.9 297.5c0 11.5-1.5 22.4-4.5 32.3-3.1 10-7.3 18.9-12.8 26.2-5.5 7.6-12.2 13.6-19.8 17.9-7.9 4.4-16.5 6.7-25.8 6.7h-73.6v-163.1h73.6c9.2 0 17.8 2 25.6 6.1 7.7 4 14.4 9.6 20 16.8 5.4 7 9.7 15.5 12.8 25.2 3 9.6 4.5 20.4 4.5 31.9zm-31.9 1.2c0-6.5-0.9-12.5-2.5-18-1.6-5.4-3.9-10-6.8-13.8-2.8-3.6-6-6.5-9.8-8.5-3.6-2-7.5-3-11.9-3h-41.9v87.3h41.9c4.4 0 8.2-1 11.9-3 3.7-2.1 7-5.1 9.8-8.8 2.9-3.8 5.1-8.5 6.8-14 1.6-5.5 2.5-11.6 2.5-18.2z"/><path class="b" d="m309.4 380.6h-37.3l-17.6-38.2h-60.8l14.9-32.9h30.7l-17.2-37.4-49.6 108.5h-36l71.2-153.3c1.5-3.3 3.3-6 5.5-8 2.6-2.5 6-3.9 9.7-3.9 3.7 0 7.1 1.4 9.7 3.9q3.1 3.2 5.4 8.1z"/><path class="b" d="m309.4 380.6h-37.3l-17.6-38.2h-60.8l14.9-32.9h30.7l-17.2-37.4-49.6 108.5h-36l71.2-153.3c1.5-3.3 3.3-6 5.5-8 2.6-2.5 6-3.9 9.7-3.9 3.7 0 7.1 1.4 9.7 3.9q3.1 3.2 5.4 8.1z"/><path class="b" d="m309.4 380.6h-37.3l-17.6-38.2h-60.8l14.9-32.9h30.7l-17.2-37.4-49.6 108.5h-36l71.2-153.3c1.5-3.3 3.3-6 5.5-8 2.6-2.5 6-3.9 9.7-3.9 3.7 0 7.1 1.4 9.7 3.9q3.1 3.2 5.4 8.1z"/><path class="b" d="m400.6 217.5v37.9h-44.6v125.2h-31.9v-125.2h-44.6v-37.9z"/><path class="b" d="m400.6 217.5v37.9h-44.6v125.2h-31.9v-125.2h-44.6v-37.9z"/><path class="b" d="m400.6 217.5v37.9h-44.6v125.2h-31.9v-125.2h-44.6v-37.9z"/><path class="b" d="m542.3 380.6h-37.3l-17.6-38.2h-60.7l14.8-32.9h30.8l-17.2-37.4-49.7 108.5h-36l71.3-153.3c1.4-3.3 3.3-6 5.4-8 2.7-2.5 6.1-3.9 9.8-3.9 3.7 0 7.1 1.4 9.7 3.9 2 2.1 3.8 4.8 5.3 8.1z"/><path class="b" d="m542.3 380.6h-37.3l-17.6-38.2h-60.7l14.8-32.9h30.8l-17.2-37.4-49.7 108.5h-36l71.3-153.3c1.4-3.3 3.3-6 5.4-8 2.7-2.5 6.1-3.9 9.8-3.9 3.7 0 7.1 1.4 9.7 3.9 2 2.1 3.8 4.8 5.3 8.1z"/><path class="b" d="m542.3 380.6h-37.3l-17.6-38.2h-60.7l14.8-32.9h30.8l-17.2-37.4-49.7 108.5h-36l71.3-153.3c1.4-3.3 3.3-6 5.4-8 2.7-2.5 6.1-3.9 9.8-3.9 3.7 0 7.1 1.4 9.7 3.9 2 2.1 3.8 4.8 5.3 8.1z"/><path fill-rule="evenodd" class="b" d="m992 327.9c0 7.5-1 14.5-2.9 20.6-2 6.3-4.9 11.8-8.6 16.4-3.9 4.7-8.6 8.4-14 10.9-5.4 2.5-11.5 3.7-18 3.7h-94v-163h91.6c6.3 0 12.2 0.9 17.5 2.8 5.4 1.9 10.1 4.9 14.1 8.7 3.9 3.8 7 8.7 9.1 14.4 2 5.6 3.1 12 3.1 19 0 5.3-0.5 10-1.5 14-1 4.2-2.4 7.8-4.2 10.9q-2.5 4.3-5.8 7.3c2.9 2.5 5.5 5.6 7.6 9.3 4 6.7 6 15.2 6 25zm-32.3-0.4c0-4.8-1-8.4-3.1-10.7-1.9-2.1-4.8-3.2-8.9-3.2h-57.9v-33.7h56.4c4.2 0 7.2-0.9 8.9-2.5 1.6-1.7 2.5-5.2 2.5-10.2 0-3.9-0.6-6-1.2-7.2-0.7-1.4-1.6-2.5-2.9-3.2-1.5-0.9-3.4-1.6-5.7-1.9q-4.2-0.5-9.5-0.5h-51.9v87.4h53.7c3.2 0 6.2-0.3 8.9-0.9 2.4-0.5 4.4-1.3 6-2.5 1.5-1 2.6-2.4 3.5-4q1.2-2.6 1.2-6.9z"/><path fill-rule="evenodd" class="b" d="m1149.5 296.4c0 11.5-1.5 22.4-4.5 32.4-3 10-7.3 18.8-12.8 26.2-5.6 7.5-12.3 13.5-19.9 17.9-7.9 4.4-16.6 6.7-25.9 6.7h-28.6c-9.2 0-17.7-2.3-25.5-6.8-7.6-4.3-14.3-10.3-19.9-17.8-5.4-7.4-9.8-16.2-12.8-26.2-3-10-4.5-20.9-4.5-32.4 0-11.6 1.5-22.4 4.5-32.1 3.1-9.8 7.4-18.3 12.9-25.3 5.6-7.1 12.3-12.7 20-16.6 7.7-3.9 16.2-5.9 25.3-5.9h28.5c9.4 0 18.2 2 26 6 7.8 4 14.5 9.7 20.1 16.8 5.4 7.1 9.7 15.6 12.7 25.3 2.9 9.6 4.5 20.3 4.4 31.8zm-51 42.2c3.8-2.1 7.1-5.1 9.9-8.8 2.8-3.8 5.1-8.5 6.7-13.9 1.7-5.6 2.5-11.7 2.5-18.2 0-6.5-0.8-12.6-2.5-18.1-1.6-5.3-3.9-10-6.7-13.7-2.8-3.6-6.1-6.5-9.9-8.6-3.7-2-7.7-2.9-12.1-2.9h-28.6c-4.4 0-8.2 0.9-11.9 2.9-3.7 2.1-7 4.9-9.7 8.6-2.8 3.7-5.1 8.3-6.7 13.6-1.7 5.5-2.5 11.6-2.5 18.2 0 6.5 0.8 12.6 2.5 18.2 1.6 5.4 3.9 10.1 6.7 14 2.8 3.7 6 6.6 9.8 8.7 3.6 2.1 7.5 3 11.8 3h28.6c4.4 0 8.4-0.9 12.1-3z"/><path class="b" d="m1266.1 216.5v37.9h-44.5v125.2h-32v-125.2h-44.5v-37.9z"/><path class="b" d="m1404.1 329.4c0 6.9-0.8 13.4-2.4 19.3-1.7 6.1-4.3 11.4-7.8 16-3.5 4.6-8 8.3-13.4 10.9-5.3 2.6-11.6 4-18.5 4h-93.7v-38h93.7c4.9 0 7-1.9 8.2-3.3 2.1-2.6 3.2-6.1 3.2-10.8 0-5-1-8.7-3-10.9-1.9-2-4.6-3-8.5-3h-53.9c-6.3 0-12.2-1.2-17.4-3.8-5.2-2.5-9.7-6-13.3-10.5-3.5-4.4-6.2-9.6-8.1-15.5-1.8-5.8-2.7-12.2-2.7-19.1 0-6.6 0.8-12.9 2.6-18.6 1.7-5.9 4.4-11.1 7.9-15.4 3.6-4.4 8.1-7.9 13.4-10.4 5.3-2.5 11.3-3.8 17.9-3.8h90v37.9h-90c-3.8 0-5.5 1.5-6.5 2.7q-2.6 3.4-2.6 10.2c0 4.4 0.9 7.8 2.7 9.9 1.5 1.9 3.4 2.7 6.3 2.7h53.7c13.7 0 24.3 4.3 31.6 12.9 7.1 8.2 10.6 20.5 10.6 36.6z"/></svg>