<svg width="91" height="91" viewBox="0 0 91 91" fill="none" xmlns="http://www.w3.org/2000/svg">
<path d="M17.0625 17.071C30.3257 10.4394 41.2287 18.4929 45.4943 24.1804C49.7599 18.4929 60.6629 10.4394 73.9261 17.071C90.9886 25.6023 86.723 46.9247 73.9261 59.7187C67.6841 65.9608 56.6901 76.9576 48.6452 83.0716C47.7482 83.7556 46.6464 84.1166 45.5186 84.096C44.3907 84.0753 43.3029 83.6743 42.4316 82.9579C35.0606 77.0059 23.2164 65.8755 17.0625 59.7187C4.2656 46.9219 -2.05934e-05 25.5994 17.0625 17.071Z" fill="url(#paint0_linear_1_32)"/>
<path d="M17.0625 17.071C30.3257 10.4394 41.2287 18.4929 45.4943 24.1804C49.7599 18.4929 60.6629 10.4394 73.9261 17.071C90.9886 25.6023 86.723 46.9247 73.9261 59.7187C67.6841 65.9608 56.6901 76.9576 48.6452 83.0716C47.7482 83.7556 46.6464 84.1166 45.5186 84.096C44.3907 84.0753 43.3029 83.6743 42.4316 82.9579C35.0606 77.0059 23.2164 65.8755 17.0625 59.7187C4.2656 46.9219 -2.05934e-05 25.5994 17.0625 17.071Z" fill="url(#paint1_radial_1_32)"/>
<path d="M17.0625 17.071C30.3257 10.4394 41.2287 18.4929 45.4943 24.1804C49.7599 18.4929 60.6629 10.4394 73.9261 17.071C90.9886 25.6023 86.723 46.9247 73.9261 59.7187C67.6841 65.9608 56.6901 76.9576 48.6452 83.0716C47.7482 83.7556 46.6464 84.1166 45.5186 84.096C44.3907 84.0753 43.3029 83.6743 42.4316 82.9579C35.0606 77.0059 23.2164 65.8755 17.0625 59.7187C4.2656 46.9219 -2.05934e-05 25.5994 17.0625 17.071Z" fill="url(#paint2_radial_1_32)"/>
<path d="M17.0625 17.071C30.3257 10.4394 41.2287 18.4929 45.4943 24.1804C49.7599 18.4929 60.6629 10.4394 73.9261 17.071C90.9886 25.6023 86.723 46.9247 73.9261 59.7187C67.6841 65.9608 56.6901 76.9576 48.6452 83.0716C47.7482 83.7556 46.6464 84.1166 45.5186 84.096C44.3907 84.0753 43.3029 83.6743 42.4316 82.9579C35.0606 77.0059 23.2164 65.8755 17.0625 59.7187C4.2656 46.9219 -2.05934e-05 25.5994 17.0625 17.071Z" fill="url(#paint3_radial_1_32)"/>
<path d="M17.0625 17.071C30.3257 10.4394 41.2287 18.4929 45.4943 24.1804C49.7599 18.4929 60.6629 10.4394 73.9261 17.071C90.9886 25.6023 86.723 46.9247 73.9261 59.7187C67.6841 65.9608 56.6901 76.9576 48.6452 83.0716C47.7482 83.7556 46.6464 84.1166 45.5186 84.096C44.3907 84.0753 43.3029 83.6743 42.4316 82.9579C35.0606 77.0059 23.2164 65.8755 17.0625 59.7187C4.2656 46.9219 -2.05934e-05 25.5994 17.0625 17.071Z" fill="url(#paint4_linear_1_32)"/>
<path d="M17.0625 17.071C30.3257 10.4394 41.2287 18.4929 45.4943 24.1804C49.7599 18.4929 60.6629 10.4394 73.9261 17.071C90.9886 25.6023 86.723 46.9247 73.9261 59.7187C67.6841 65.9608 56.6901 76.9576 48.6452 83.0716C47.7482 83.7556 46.6464 84.1166 45.5186 84.096C44.3907 84.0753 43.3029 83.6743 42.4316 82.9579C35.0606 77.0059 23.2164 65.8755 17.0625 59.7187C4.2656 46.9219 -2.05934e-05 25.5994 17.0625 17.071Z" fill="url(#paint5_linear_1_32)"/>
<path d="M17.0625 17.071C30.3257 10.4394 41.2287 18.4929 45.4943 24.1804C49.7599 18.4929 60.6629 10.4394 73.9261 17.071C90.9886 25.6023 86.723 46.9247 73.9261 59.7187C67.6841 65.9608 56.6901 76.9576 48.6452 83.0716C47.7482 83.7556 46.6464 84.1166 45.5186 84.096C44.3907 84.0753 43.3029 83.6743 42.4316 82.9579C35.0606 77.0059 23.2164 65.8755 17.0625 59.7187C4.2656 46.9219 -2.05934e-05 25.5994 17.0625 17.071Z" fill="url(#paint6_radial_1_32)"/>
<path d="M17.0625 17.071C30.3257 10.4394 41.2287 18.4929 45.4943 24.1804C49.7599 18.4929 60.6629 10.4394 73.9261 17.071C90.9886 25.6023 86.723 46.9247 73.9261 59.7187C67.6841 65.9608 56.6901 76.9576 48.6452 83.0716C47.7482 83.7556 46.6464 84.1166 45.5186 84.096C44.3907 84.0753 43.3029 83.6743 42.4316 82.9579C35.0606 77.0059 23.2164 65.8755 17.0625 59.7187C4.2656 46.9219 -2.05934e-05 25.5994 17.0625 17.071Z" fill="url(#paint7_radial_1_32)"/>
<path d="M17.0625 17.071C30.3257 10.4394 41.2287 18.4929 45.4943 24.1804C49.7599 18.4929 60.6629 10.4394 73.9261 17.071C90.9886 25.6023 86.723 46.9247 73.9261 59.7187C67.6841 65.9608 56.6901 76.9576 48.6452 83.0716C47.7482 83.7556 46.6464 84.1166 45.5186 84.096C44.3907 84.0753 43.3029 83.6743 42.4316 82.9579C35.0606 77.0059 23.2164 65.8755 17.0625 59.7187C4.2656 46.9219 -2.05934e-05 25.5994 17.0625 17.071Z" fill="url(#paint8_radial_1_32)"/>
<path d="M17.0625 17.071C30.3257 10.4394 41.2287 18.4929 45.4943 24.1804C49.7599 18.4929 60.6629 10.4394 73.9261 17.071C90.9886 25.6023 86.723 46.9247 73.9261 59.7187C67.6841 65.9608 56.6901 76.9576 48.6452 83.0716C47.7482 83.7556 46.6464 84.1166 45.5186 84.096C44.3907 84.0753 43.3029 83.6743 42.4316 82.9579C35.0606 77.0059 23.2164 65.8755 17.0625 59.7187C4.2656 46.9219 -2.05934e-05 25.5994 17.0625 17.071Z" fill="url(#paint9_radial_1_32)"/>
<defs>
<linearGradient id="paint0_linear_1_32" x1="11.375" y1="30.5817" x2="81.3881" y2="30.5817" gradientUnits="userSpaceOnUse">
<stop offset="0.081" stop-color="#FF3E9C"/>
<stop offset="1" stop-color="#FF4EAA"/>
</linearGradient>
<radialGradient id="paint1_radial_1_32" cx="0" cy="0" r="1" gradientUnits="userSpaceOnUse" gradientTransform="translate(70.7269 80.3359) rotate(45.3993) scale(144.256 65.9835)">
<stop offset="0.521" stop-color="#E5498A" stop-opacity="0"/>
<stop offset="0.58" stop-color="#CE5784"/>
</radialGradient>
<radialGradient id="paint2_radial_1_32" cx="0" cy="0" r="1" gradientUnits="userSpaceOnUse" gradientTransform="translate(79.2554 21.6979) rotate(119.541) scale(71.7231 71.7231)">
<stop offset="0.225" stop-color="#FF51AC"/>
<stop offset="1" stop-color="#FF51AC" stop-opacity="0"/>
</radialGradient>
<radialGradient id="paint3_radial_1_32" cx="0" cy="0" r="1" gradientUnits="userSpaceOnUse" gradientTransform="translate(38.0337 31.992) rotate(72.802) scale(31.2571 18.1083)">
<stop offset="0.228" stop-color="#FF74BF"/>
<stop offset="0.755" stop-color="#FF6BB9" stop-opacity="0"/>
</radialGradient>
<linearGradient id="paint4_linear_1_32" x1="40.8732" y1="33.07" x2="73.036" y2="33.07" gradientUnits="userSpaceOnUse">
<stop offset="0.055" stop-color="#FF54AC" stop-opacity="0"/>
<stop offset="0.155" stop-color="#FF449E"/>
<stop offset="0.669" stop-color="#FF449F"/>
<stop offset="1" stop-color="#FF57AF" stop-opacity="0"/>
</linearGradient>
<linearGradient id="paint5_linear_1_32" x1="24.8828" y1="96.6875" x2="57.2305" y2="45.8555" gradientUnits="userSpaceOnUse">
<stop offset="0.433" stop-color="#CF2F8D"/>
<stop offset="0.824" stop-color="#F4369A" stop-opacity="0"/>
</linearGradient>
<radialGradient id="paint6_radial_1_32" cx="0" cy="0" r="1" gradientUnits="userSpaceOnUse" gradientTransform="translate(75.5253 25.9603) rotate(134.433) scale(32.7336 18.462)">
<stop offset="0.164" stop-color="#FF82CC"/>
<stop offset="1" stop-color="#FF5DB0" stop-opacity="0"/>
</radialGradient>
<radialGradient id="paint7_radial_1_32" cx="0" cy="0" r="1" gradientUnits="userSpaceOnUse" gradientTransform="translate(60.7732 0.193038) rotate(125.723) scale(31.9575 11.2041)">
<stop offset="0.23" stop-color="#CE5880"/>
<stop offset="1" stop-color="#CE5880" stop-opacity="0"/>
</radialGradient>
<radialGradient id="paint8_radial_1_32" cx="0" cy="0" r="1" gradientUnits="userSpaceOnUse" gradientTransform="translate(59.5333 63.2808) rotate(117.773) scale(30.1258 24.6181)">
<stop stop-color="#FF3BA3"/>
<stop offset="1" stop-color="#FF3BA3" stop-opacity="0"/>
</radialGradient>
<radialGradient id="paint9_radial_1_32" cx="0" cy="0" r="1" gradientUnits="userSpaceOnUse" gradientTransform="translate(23.4581 20.6314) rotate(136.655) scale(130.485 101.538)">
<stop offset="0.567" stop-color="#CF5B91" stop-opacity="0"/>
<stop offset="0.671" stop-color="#CF5B91"/>
</radialGradient>
</defs>
</svg>
